<svg xmlns="http://www.w3.org/2000/svg" viewBox="0 0 178.46 39.79"><defs><style>.cls-1{fill:#43ba88;}.cls-2{fill:#c2e4d4;}.cls-3{fill:#9dd5bd;}</style></defs><g id="Layer_2" data-name="Layer 2"><g id="Layer_1-2" data-name="Layer 1"><path class="cls-1" d="M13,16.17l7.24-7.25-2-2a5.28,5.28,0,0,0-7.46,0L1.54,16.17a5.28,5.28,0,0,0,0,7.45l9.22,9.22a5.28,5.28,0,0,0,7.46,0l2-2L13,23.62A5.26,5.26,0,0,1,13,16.17Z"/><path class="cls-2" d="M49.65,16.17,35,1.54a5.28,5.28,0,0,0-7.45,0L20.19,8.92l7.25,7.25a5.28,5.28,0,0,1,0,7.45l-7.25,7.24,7.38,7.38a5.26,5.26,0,0,0,7.45,0L49.65,23.62A5.26,5.26,0,0,0,49.65,16.17Z"/><path class="cls-3" d="M27.44,16.17,20.19,8.92,13,16.17a5.26,5.26,0,0,0,0,7.45l7.24,7.24,7.25-7.24A5.28,5.28,0,0,0,27.44,16.17Z"/><path class="cls-1" d="M71.33,31.28a2.93,2.93,0,0,1-2-1.88,15.3,15.3,0,0,1-.53-4.77H73a9.59,9.59,0,0,0,.19,2.28,1.17,1.17,0,0,0,.81.82,8.52,8.52,0,0,0,2.22.19,9.21,9.21,0,0,0,2.19-.17,1.1,1.1,0,0,0,.83-.74A7.69,7.69,0,0,0,79.38,25a5.65,5.65,0,0,0-.19-1.75,1.08,1.08,0,0,0-.81-.63,10.73,10.73,0,0,0-2.21-.15A18.08,18.08,0,0,1,71.58,22a3,3,0,0,1-2-1.65A10.18,10.18,0,0,1,69,16.51,13.55,13.55,0,0,1,69.55,12a2.85,2.85,0,0,1,2-1.78,18.22,18.22,0,0,1,4.67-.42,17.53,17.53,0,0,1,4.66.44,2.92,2.92,0,0,1,2,1.86,14.74,14.74,0,0,1,.53,4.67H79.17a9,9,0,0,0-.19-2.2,1.1,1.1,0,0,0-.76-.8,8.54,8.54,0,0,0-2-.17,8.43,8.43,0,0,0-2,.17,1.06,1.06,0,0,0-.76.72,6.8,6.8,0,0,0-.19,2,6.47,6.47,0,0,0,.19,1.91,1,1,0,0,0,.76.69,9.32,9.32,0,0,0,2,.15,21.24,21.24,0,0,1,4.73.38,3,3,0,0,1,2,1.54A9.2,9.2,0,0,1,83.52,25,14,14,0,0,1,83,29.51a2.85,2.85,0,0,1-2,1.79,19.42,19.42,0,0,1-4.83.42A18.32,18.32,0,0,1,71.33,31.28Z"/><path class="cls-1" d="M88,10.05H92l.08,2.24a3.29,3.29,0,0,1,1-1.69A3.08,3.08,0,0,1,94.57,10a20.6,20.6,0,0,1,2.76-.13,8.26,8.26,0,0,1,3.22.46,2.66,2.66,0,0,1,1.39,1.84,18.71,18.71,0,0,1,.38,4.46V25a18.65,18.65,0,0,1-.38,4.46,2.64,2.64,0,0,1-1.39,1.84,8.26,8.26,0,0,1-3.22.46,25,25,0,0,1-2.66-.1,3.22,3.22,0,0,1-1.52-.55,2.77,2.77,0,0,1-1-1.42v8.2H88Zm9.27,17.7A1,1,0,0,0,98,27,8.43,8.43,0,0,0,98.18,25V16.6A8.43,8.43,0,0,0,98,14.55a1,1,0,0,0-.7-.74,7.36,7.36,0,0,0-1.92-.17,11.12,11.12,0,0,0-2.11.13,1.13,1.13,0,0,0-.85.74,6,6,0,0,0-.25,2.09V25a6,6,0,0,0,.25,2.09,1.17,1.17,0,0,0,.85.75,12.35,12.35,0,0,0,2.11.12A6.94,6.94,0,0,0,97.31,27.75Z"/><path class="cls-1" d="M108.57,31.26a2.64,2.64,0,0,1-1.39-1.84A18.65,18.65,0,0,1,106.8,25V16.6a18.71,18.71,0,0,1,.38-4.46,2.66,2.66,0,0,1,1.39-1.84,8.24,8.24,0,0,1,3.21-.46,24.35,24.35,0,0,1,2.62.1,3.5,3.5,0,0,1,1.55.55,2.79,2.79,0,0,1,1,1.46v-10h4.14V31.51h-4l0-2.24a3.14,3.14,0,0,1-1,1.69,3.26,3.26,0,0,1-1.56.64,22.82,22.82,0,0,1-2.73.12A8.24,8.24,0,0,1,108.57,31.26Zm7.27-3.46a1.18,1.18,0,0,0,.85-.75,6.23,6.23,0,0,0,.25-2.09V16.6a6.28,6.28,0,0,0-.25-2.09,1.15,1.15,0,0,0-.85-.74,11.12,11.12,0,0,0-2.11-.13,7.36,7.36,0,0,0-1.92.17,1,1,0,0,0-.7.74,8.43,8.43,0,0,0-.17,2.05V25a8.43,8.43,0,0,0,.17,2.05,1,1,0,0,0,.7.74,6.94,6.94,0,0,0,1.92.17A12.35,12.35,0,0,0,115.84,27.8Z"/><path class="cls-1" d="M127.9,31.28a2.79,2.79,0,0,1-1.94-1.8,14.52,14.52,0,0,1-.49-4.52V16.6a14.56,14.56,0,0,1,.49-4.52,2.81,2.81,0,0,1,1.9-1.8,18,18,0,0,1,4.75-.44,18.1,18.1,0,0,1,4.76.44,2.82,2.82,0,0,1,1.9,1.78,14.3,14.3,0,0,1,.48,4.41,11.13,11.13,0,0,1-.48,3.87,2.76,2.76,0,0,1-1.92,1.56,19.54,19.54,0,0,1-4.74.4,8.5,8.5,0,0,0-1.92.15,1.19,1.19,0,0,0-.82.76,6.15,6.15,0,0,0-.26,2.13,5.93,5.93,0,0,0,.19,1.78,1,1,0,0,0,.83.65,10.57,10.57,0,0,0,2.15.15,8.29,8.29,0,0,0,2.2-.19,1.17,1.17,0,0,0,.78-.82,9.08,9.08,0,0,0,.19-2.28h4.1a16,16,0,0,1-.49,4.75,2.86,2.86,0,0,1-1.94,1.88,17.7,17.7,0,0,1-4.84.46A18.57,18.57,0,0,1,127.9,31.28Zm2.79-11.64a4.59,4.59,0,0,1,1.92-.34,8.17,8.17,0,0,0,2.07-.17,1,1,0,0,0,.76-.71,7.29,7.29,0,0,0,.17-2,7.16,7.16,0,0,0-.17-1.94,1,1,0,0,0-.76-.72,8.68,8.68,0,0,0-2.07-.17,8.8,8.8,0,0,0-2.07.17,1,1,0,0,0-.76.74,8.43,8.43,0,0,0-.17,2.05v4.48A2.37,2.37,0,0,1,130.69,19.64Z"/><path class="cls-1" d="M144.57,10.05h3.93l.08,2.24a3.23,3.23,0,0,1,1-1.69A3,3,0,0,1,151.1,10a20.77,20.77,0,0,1,2.77-.13,8.24,8.24,0,0,1,3.21.46,2.66,2.66,0,0,1,1.39,1.84,18.71,18.71,0,0,1,.38,4.46V25a18.65,18.65,0,0,1-.38,4.46,2.64,2.64,0,0,1-1.39,1.84,8.24,8.24,0,0,1-3.21.46,25.17,25.17,0,0,1-2.67-.1,3.22,3.22,0,0,1-1.52-.55,2.83,2.83,0,0,1-1-1.42v8.2h-4.14Zm9.27,17.7a1,1,0,0,0,.7-.74,8.43,8.43,0,0,0,.17-2.05V16.6a8.43,8.43,0,0,0-.17-2.05,1,1,0,0,0-.7-.74,7.36,7.36,0,0,0-1.92-.17,11.12,11.12,0,0,0-2.11.13,1.13,1.13,0,0,0-.85.74,6.28,6.28,0,0,0-.25,2.09V25a6.23,6.23,0,0,0,.25,2.09,1.17,1.17,0,0,0,.85.75,12.35,12.35,0,0,0,2.11.12A6.94,6.94,0,0,0,153.84,27.75Z"/><path class="cls-1" d="M165.86,31.26a2.92,2.92,0,0,1-2-1.82,13.92,13.92,0,0,1-.51-4.48V16.6a13.92,13.92,0,0,1,.51-4.48,2.92,2.92,0,0,1,2-1.82,27.73,27.73,0,0,1,10.06,0,2.94,2.94,0,0,1,2,1.82,13.92,13.92,0,0,1,.51,4.48V25a13.92,13.92,0,0,1-.51,4.48,2.94,2.94,0,0,1-2,1.82,27.73,27.73,0,0,1-10.06,0Zm7.36-3.53a1.22,1.22,0,0,0,.88-.76,6.57,6.57,0,0,0,.21-2V16.6a6.64,6.64,0,0,0-.21-2,1.23,1.23,0,0,0-.88-.78,9.61,9.61,0,0,0-2.33-.19,9.51,9.51,0,0,0-2.32.19,1.24,1.24,0,0,0-.89.78,6.64,6.64,0,0,0-.21,2V25a6.57,6.57,0,0,0,.21,2,1.24,1.24,0,0,0,.89.76,9.51,9.51,0,0,0,2.32.19A9.61,9.61,0,0,0,173.22,27.73Z"/></g></g></svg>